<?xml version="1.0" standalone="no"?>
<!DOCTYPE svg PUBLIC "-//W3C//DTD SVG 20010904//EN"
 "http://www.w3.org/TR/2001/REC-SVG-20010904/DTD/svg10.dtd">
<svg version="1.0" xmlns="http://www.w3.org/2000/svg"
 width="1246.000000pt" height="1280.000000pt" viewBox="0 0 1246.000000 1280.000000"
 preserveAspectRatio="xMidYMid meet">
<metadata>
Created by potrace 1.15, written by Peter Selinger 2001-2017
</metadata>
<g transform="translate(0.000000,1280.000000) scale(0.100000,-0.100000)"
fill="#03a9f4" stroke="none">
<path d="M10315 12789 c-209 -8 -511 -46 -670 -84 -111 -26 -314 -98 -465
-165 -318 -140 -676 -214 -1124 -230 -268 -10 -387 -25 -491 -64 -80 -31 -172
-92 -209 -140 l-27 -36 -252 0 c-275 -1 -494 -18 -598 -48 -62 -17 -151 -62
-163 -81 -3 -4 -33 -2 -68 6 -36 7 -130 14 -218 14 -158 2 -259 -12 -480 -62
-267 -61 -555 -194 -724 -334 l-69 -58 -96 -3 c-281 -9 -587 -106 -818 -262
-321 -216 -545 -452 -772 -813 -246 -393 -421 -876 -421 -1162 0 -53 -4 -98
-9 -102 -14 -8 -59 -149 -80 -255 -38 -184 -46 -271 -46 -525 1 -262 13 -391
55 -560 24 -96 94 -273 126 -321 21 -31 23 -40 14 -77 -34 -147 37 -574 127
-766 49 -103 165 -200 447 -375 335 -208 555 -366 666 -480 30 -31 57 -56 60
-56 4 0 12 66 18 148 45 551 169 892 335 917 41 6 108 -2 148 -19 13 -6 10 6
-12 50 -39 77 -38 117 4 159 49 49 88 53 199 20 131 -39 152 -41 176 -17 33
33 43 89 32 173 -14 109 -13 110 28 32 20 -40 58 -99 84 -132 93 -118 294
-255 436 -296 40 -12 203 -45 220 -45 3 0 -11 16 -31 35 -78 76 -131 175 -142
266 -6 46 -3 65 14 105 l22 48 23 -49 c31 -66 86 -117 167 -154 77 -36 206
-75 304 -90 76 -13 367 -32 374 -25 3 2 -3 10 -11 17 -86 66 -146 121 -142
128 3 5 14 9 26 9 59 0 224 69 335 141 l48 31 -42 -7 c-146 -23 -326 4 -446
67 -92 48 -189 149 -233 242 -48 100 -55 177 -26 272 35 114 36 115 116 39 95
-90 256 -213 540 -413 l239 -169 96 -7 c53 -3 134 -6 181 -6 l85 0 -95 43
c-88 40 -251 135 -464 270 -49 32 -86 57 -83 57 3 0 36 -7 74 -16 55 -13 103
-15 248 -10 99 3 209 12 245 20 l65 14 -45 1 c-165 4 -455 90 -588 173 -34 22
-62 42 -60 43 2 2 57 -12 122 -31 273 -79 459 -84 756 -22 30 6 58 14 63 18 4
3 -38 12 -93 18 -324 38 -736 192 -1030 385 -99 66 -256 195 -247 204 3 2 49
-7 103 -21 334 -84 561 -96 754 -38 l55 16 -100 7 c-111 8 -194 28 -258 61
l-42 22 55 7 c57 8 121 32 178 66 l32 20 -132 1 c-214 1 -346 35 -526 134
-150 82 -315 257 -401 425 -30 60 -27 67 22 39 23 -14 94 -45 157 -69 259
-100 369 -120 685 -122 190 -1 240 -4 288 -19 72 -22 141 -73 145 -107 3 -25
4 -25 90 -25 101 1 149 -19 159 -66 5 -24 8 -26 31 -17 14 5 38 7 53 4 28 -6
89 -66 89 -87 0 -7 17 4 38 24 20 20 48 41 61 48 33 17 85 4 120 -30 l29 -30
20 34 c26 44 77 81 127 93 l40 9 -45 25 c-25 13 -54 39 -65 57 -19 31 -22 32
-65 25 -25 -5 -99 -7 -165 -7 -127 2 -236 24 -340 69 l-50 22 135 6 c236 11
439 69 712 204 149 74 199 109 77 54 -358 -160 -827 -209 -1166 -120 -257 67
-476 200 -634 383 -38 43 -69 83 -69 88 0 4 55 -19 123 -53 500 -251 754 -329
1074 -329 90 0 380 34 392 46 2 2 -53 4 -124 4 -298 0 -606 80 -920 238 -110
55 -301 171 -282 172 4 0 37 -13 73 -30 79 -36 190 -56 379 -70 177 -12 180
-12 120 9 -27 10 -75 28 -107 39 -83 30 -104 43 -87 52 17 9 262 55 369 69
196 26 407 -55 620 -239 129 -111 191 -131 247 -78 32 30 39 80 18 134 -41
107 -96 138 -385 214 -152 40 -219 63 -301 104 l-106 52 -74 -27 c-79 -30
-295 -96 -443 -135 l-89 -24 -48 36 c-237 174 -299 458 -171 785 12 31 42 39
153 39 99 0 290 24 397 51 312 77 497 251 520 488 5 47 4 111 -1 143 -5 33 -6
62 -3 65 2 3 49 -19 103 -48 306 -164 452 -265 636 -439 265 -252 443 -559
536 -927 48 -187 95 -577 89 -732 l-3 -83 -60 -23 c-33 -12 -98 -44 -145 -72
-114 -67 -143 -111 -143 -217 0 -41 4 -79 7 -85 4 -6 21 6 41 28 44 49 107 76
213 92 73 11 86 11 117 -4 42 -20 59 -73 50 -152 l-7 -53 63 -8 62 -9 27 -80
c42 -122 74 -188 143 -293 155 -237 322 -396 757 -722 339 -255 550 -507 601
-720 15 -61 19 -295 6 -375 -10 -63 2 -45 38 60 68 198 34 402 -105 611 -66
102 -239 291 -398 436 -212 194 -508 490 -579 578 -83 103 -161 225 -227 355
-31 61 -56 113 -56 118 0 4 28 -16 63 -45 138 -117 368 -247 570 -322 105 -39
292 -87 422 -107 119 -19 373 -16 470 5 94 21 118 36 56 36 -195 0 -575 176
-897 416 -180 134 -422 362 -497 469 -20 27 -15 25 43 -18 246 -180 590 -381
814 -476 250 -105 414 -151 651 -182 246 -33 474 -18 715 46 208 55 211 52
-61 53 -394 1 -708 52 -1019 164 -212 76 -476 233 -677 402 -107 90 -294 268
-256 245 12 -8 73 -49 136 -92 249 -168 633 -318 872 -342 l60 -6 -55 24
c-313 135 -673 364 -866 553 -43 42 -63 65 -44 50 54 -41 217 -120 305 -149
44 -15 129 -38 190 -51 92 -20 106 -21 88 -8 -149 116 -190 159 -218 225 -17
41 -20 83 -6 91 5 3 26 0 47 -8 512 -186 869 -315 1199 -434 138 -49 281 -101
318 -116 l68 -26 127 122 c298 287 412 398 408 398 -2 0 -41 -17 -87 -39 -145
-66 -272 -109 -405 -137 -114 -23 -144 -26 -259 -20 -145 6 -272 33 -396 85
-89 37 -291 151 -414 233 -107 72 -120 83 -80 68 394 -152 679 -197 973 -155
109 15 270 51 288 63 12 8 136 212 129 212 -3 0 -27 -14 -54 -30 -272 -168
-716 -164 -1216 9 -396 138 -817 365 -1170 632 -122 92 -288 230 -282 235 2 2
30 -5 63 -16 147 -51 597 -154 794 -181 144 -21 549 -18 670 4 417 77 701 202
1349 595 74 45 140 87 145 94 6 6 -2 4 -17 -6 -85 -52 -366 -189 -528 -257
-298 -124 -524 -191 -794 -238 -219 -37 -316 -44 -574 -38 -265 5 -368 17
-586 68 -145 34 -556 151 -550 157 2 2 97 -2 211 -9 300 -17 829 -7 1034 21
290 39 564 122 829 251 79 39 141 73 138 75 -3 3 -15 0 -27 -6 -34 -18 -304
-68 -430 -79 -235 -21 -372 -23 -547 -7 -195 18 -408 56 -310 56 64 0 401 32
482 46 219 37 436 105 610 189 277 136 500 351 684 659 73 124 195 356 189
361 -2 3 -46 -31 -97 -75 -95 -81 -303 -229 -447 -318 -212 -131 -481 -244
-707 -296 -171 -40 -468 -46 -704 -16 -196 25 -235 32 -230 37 3 2 76 15 163
28 941 143 1410 337 1755 726 56 63 219 276 244 318 9 16 16 20 -110 -63 -356
-236 -944 -433 -1665 -560 -572 -101 -1097 -151 -1780 -170 l-175 -5 121 14
c140 16 332 55 431 87 107 35 347 159 468 242 424 290 607 374 1015 464 54 12
53 12 -205 1z m-4190 -3507 c212 -98 460 -195 608 -238 67 -19 124 -37 127
-41 11 -13 -305 8 -412 28 -278 50 -432 123 -574 271 -49 51 -104 131 -104
151 0 2 44 -19 98 -46 53 -28 169 -84 257 -125z"/>
<path d="M7848 9243 c7 -3 16 -2 19 1 4 3 -2 6 -13 5 -11 0 -14 -3 -6 -6z"/>
<path d="M8646 8498 c17 -97 22 -104 66 -117 62 -18 106 -56 130 -109 11 -26
24 -54 28 -62 6 -12 167 -53 178 -45 2 2 -6 18 -17 36 -29 50 -53 142 -49 191
l3 43 -90 27 c-49 14 -108 33 -130 41 -22 8 -59 18 -82 22 l-43 7 6 -34z"/>
<path d="M8893 8002 c81 -86 121 -175 121 -267 0 -80 -21 -133 -85 -213 -36
-46 -39 -55 -39 -113 0 -125 -20 -336 -40 -429 -21 -95 -30 -120 -30 -84 0 39
-21 92 -45 117 -31 31 -62 37 -106 22 -32 -10 -37 -9 -78 27 -51 45 -136 73
-187 64 -48 -10 -124 -52 -300 -167 -158 -103 -311 -182 -428 -220 -36 -12
-66 -25 -66 -28 1 -20 33 -41 76 -51 27 -7 90 -32 139 -56 92 -44 118 -65 365
-291 127 -116 232 -177 335 -196 l64 -12 -38 -60 c-73 -116 -78 -160 -19 -195
63 -39 154 -135 182 -193 14 -28 32 -77 39 -107 14 -53 14 -54 28 -30 25 45
15 151 -21 228 -29 61 -29 65 -8 45 55 -52 173 -81 275 -68 l55 7 -49 23 c-65
29 -112 72 -168 150 -51 72 -134 144 -209 182 l-51 26 30 10 c78 26 125 95
125 183 0 38 -7 61 -30 97 -16 26 -33 47 -37 47 -5 0 -16 7 -25 14 -16 12 -14
17 26 59 l42 46 60 -76 c32 -42 76 -102 98 -132 21 -31 35 -47 31 -36 -4 11
-14 49 -23 84 -14 56 -14 67 -1 89 8 14 19 27 25 29 18 6 157 -91 233 -162 39
-37 92 -101 117 -142 54 -86 104 -220 104 -280 0 -25 5 -43 11 -43 8 0 10 38
7 133 -4 114 -9 145 -36 225 -18 51 -49 118 -69 150 -60 90 -59 91 11 17 156
-167 258 -353 306 -561 l18 -79 1 75 c1 124 -16 215 -59 322 -47 119 -94 198
-164 281 -28 33 -60 71 -71 86 -19 26 -19 26 1 9 11 -9 45 -28 75 -42 151 -66
318 -58 501 27 l70 32 -95 2 c-153 2 -267 41 -402 138 -62 45 -162 142 -135
132 210 -78 362 -104 534 -92 124 8 150 20 70 30 -149 18 -443 140 -611 253
-78 53 -170 138 -159 149 2 2 23 -5 47 -15 71 -30 216 -63 319 -71 52 -5 201
-6 331 -3 194 4 250 2 320 -12 82 -16 220 -74 281 -117 62 -45 35 -7 -74 103
-235 238 -470 353 -848 417 -254 44 -359 100 -424 229 -20 39 -31 120 -22 156
8 32 59 66 101 67 26 1 23 3 -20 16 -27 8 -111 33 -185 55 -74 22 -144 43
-155 46 -13 3 0 -16 38 -56z m-586 -1233 c22 -14 42 -19 59 -15 32 8 60 -7 79
-44 20 -38 19 -79 -2 -102 -23 -25 -33 -23 -124 23 -49 24 -101 42 -132 46
-85 9 -101 41 -46 87 40 34 115 36 166 5z"/>
<path d="M8304 7664 c-40 -20 -58 -55 -43 -88 16 -34 38 -37 100 -10 30 13 64
23 77 24 37 0 93 -28 99 -50 6 -23 53 -29 53 -6 0 27 -66 111 -100 128 -44 22
-143 23 -186 2z"/>
<path d="M8662 7452 c-8 -21 16 -62 36 -62 17 0 106 53 117 69 2 4 -30 7 -72
7 -52 -1 -77 -5 -81 -14z"/>
<path d="M5563 6385 c5 -18 10 -37 22 -101 5 -21 226 -219 519 -464 413 -346
549 -501 586 -672 12 -52 11 -66 -10 -145 -36 -140 -82 -215 -174 -284 -25
-19 -46 -37 -46 -40 0 -3 26 -2 58 2 31 4 104 13 162 19 517 56 1012 195 1415
397 l120 61 -80 7 c-226 19 -465 72 -755 167 -673 220 -1220 536 -1761 1018
-40 35 -60 48 -56 35z"/>
<path d="M8495 5584 c-11 -207 -45 -308 -128 -379 l-38 -33 151 -36 c84 -20
191 -43 239 -52 128 -23 437 -29 658 -13 510 36 826 -4 1121 -141 282 -132
529 -353 714 -640 65 -100 209 -394 259 -527 40 -105 40 -107 21 -122 -30 -24
-44 -59 -37 -90 9 -40 59 -83 150 -129 44 -22 93 -53 108 -69 48 -52 18 -76
-108 -88 -128 -11 -158 -47 -111 -132 62 -113 79 -158 83 -223 3 -53 0 -71
-16 -98 -25 -40 -73 -70 -124 -79 -39 -6 -39 -6 -30 -42 4 -20 8 -76 8 -124 0
-87 0 -89 -33 -118 -18 -16 -42 -29 -53 -29 -16 0 -19 -4 -14 -17 45 -110 45
-192 2 -266 -87 -147 -350 -296 -777 -438 -398 -132 -594 -180 -744 -182 -97
-1 -142 16 -181 68 -24 31 -29 48 -33 115 l-4 78 -53 -23 c-28 -13 -80 -29
-114 -36 -53 -10 -67 -9 -106 6 -25 9 -51 26 -57 38 -21 39 -14 145 16 232 26
78 130 277 188 363 l29 42 -68 0 c-108 0 -160 45 -136 117 9 26 14 28 68 31
67 3 128 32 153 74 23 39 4 74 -53 99 l-45 20 20 51 c33 88 94 134 215 164
155 38 200 85 248 259 30 110 47 237 47 351 0 131 -16 186 -60 209 -24 12 -32
11 -76 -9 -27 -13 -63 -35 -80 -49 -38 -32 -44 -33 -44 -7 0 27 -37 121 -58
146 -25 30 -55 44 -93 44 -34 0 -73 -34 -152 -133 -78 -97 -202 -153 -247
-112 -11 10 -20 29 -20 42 0 34 -13 29 -64 -28 -92 -102 -129 -220 -129 -409
0 -186 22 -290 119 -553 48 -128 54 -167 28 -167 -9 0 -50 16 -91 36 -103 49
-158 54 -222 20 -83 -43 -102 -37 -174 57 -23 31 -34 37 -64 37 -31 0 -45 -8
-88 -53 -146 -150 -161 -396 -30 -477 19 -11 71 -28 117 -36 97 -18 186 -58
246 -109 55 -47 72 -82 72 -144 0 -44 -5 -56 -35 -89 -72 -80 -251 -147 -473
-177 -184 -25 -285 -44 -379 -71 -107 -31 -291 -103 -395 -155 l-77 -38 6 52
c21 189 158 442 327 605 45 43 101 87 123 97 l42 18 -39 28 c-48 35 -93 110
-122 204 -40 127 -25 343 31 471 l19 43 -49 -19 c-78 -31 -121 -55 -178 -100
-64 -51 -169 -183 -215 -269 -48 -93 -102 -276 -121 -411 -21 -150 -40 -220
-83 -303 -39 -75 -84 -118 -141 -136 -84 -25 -161 -6 -249 60 -29 23 -78 52
-109 66 -48 22 -65 25 -132 21 -96 -7 -156 -33 -226 -99 -75 -71 -106 -139
-107 -232 0 -40 7 -96 16 -126 23 -79 20 -112 -13 -158 -117 -161 -521 -139
-586 31 -24 62 -15 116 36 217 52 105 72 195 59 274 -29 176 -190 341 -366
374 -135 26 -252 -58 -288 -206 -44 -178 -60 -205 -139 -238 -47 -19 -92 -9
-161 37 -93 61 -169 182 -236 373 -71 201 -133 308 -238 408 -135 128 -297
155 -370 62 -12 -16 -25 -25 -28 -22 -4 3 -15 39 -26 79 -10 40 -43 120 -71
178 -82 165 -194 261 -350 301 -48 12 -281 9 -294 -4 -3 -4 9 -23 27 -44 67
-76 105 -204 89 -303 -25 -157 -191 -313 -333 -313 -78 0 -124 29 -160 101
l-17 33 -34 -29 c-121 -107 -194 -39 -280 260 -44 152 -89 218 -136 199 -47
-18 -76 -59 -217 -311 -148 -265 -239 -338 -349 -282 -99 51 -234 282 -284
487 -37 157 -23 349 33 428 11 15 17 27 15 27 -3 0 -31 -12 -63 -27 -45 -21
-79 -28 -144 -31 -90 -4 -113 1 -354 88 -100 36 -175 41 -223 17 -130 -68
-209 -336 -154 -528 10 -37 42 -110 70 -164 39 -74 51 -108 51 -142 0 -142
-108 -152 -254 -22 l-58 52 -25 -32 c-56 -72 -118 -76 -177 -11 -49 54 -70
131 -69 250 3 284 174 549 520 809 263 198 499 273 1128 362 282 39 694 124
998 205 377 100 626 198 852 335 241 145 404 339 452 537 24 100 22 280 -5
357 l-20 60 -1 -113 c-2 -192 -43 -335 -141 -483 -239 -365 -860 -609 -2131
-838 -573 -104 -582 -105 -728 -153 -345 -112 -602 -264 -767 -455 -160 -183
-256 -392 -284 -615 -6 -53 -10 -557 -10 -1405 l0 -1323 6183 0 6182 0 -3
1474 -2 1474 -68 22 c-85 27 -145 62 -200 114 -65 61 -86 108 -86 186 1 104
45 164 149 200 67 23 107 57 137 114 25 48 26 127 4 181 -44 104 -124 133
-306 109 -136 -18 -204 -18 -268 1 -76 23 -97 69 -71 154 2 8 -19 27 -56 50
-60 36 -126 47 -165 28 -12 -6 -21 4 -39 40 -60 124 -260 393 -378 510 -70 68
-172 149 -295 231 -231 155 -486 238 -813 264 -121 9 -193 9 -375 -3 -124 -8
-264 -13 -313 -12 -353 6 -615 193 -691 493 l-23 93 -8 -139z"/>
</g>
</svg>
